<svg xmlns="http://www.w3.org/2000/svg" viewBox="0 0 1920 1920">
  <defs>
    <clipPath id="logo">
      <rect x="0" y="0" width="1920" height="1920" />
    </clipPath>
  </defs>
  <g clip-path="url(#logo)">
          <rect fill="none" width="1920" height="1920"/>
    <g transform="scale(4.8)">
      <g fill="none" font-family="none" font-size="none" font-weight="none" stroke-miterlimit="10" stroke-width="none" style="mix-blend-mode:normal" text-anchor="none">
<rect fill="none" height="400" stroke-width="1" width="400"/>
<rect fill="none" height="400" stroke-width="1" width="400"/>
<rect fill="none" height="400" stroke-width="1" width="400"/>
<rect fill="none" height="400" stroke-width="1" width="400"/>
<rect fill="none" height="400" stroke-width="1" width="400"/>
<rect fill="none" height="400" stroke-width="1" width="400"/>
<rect fill="none" height="400" stroke-width="1" width="400"/>
<rect fill="none" height="400" stroke-width="1" width="400"/>
<rect fill="none" height="400" stroke-width="1" width="400"/>
<rect fill="none" height="400" stroke-width="1" width="400"/>
<rect fill="none" height="400" stroke-width="1" width="400"/>
<rect fill="none" height="400" stroke-width="1" width="400"/>
<rect fill="none" height="400" stroke-width="1" width="400"/>
<rect fill="none" height="400" stroke-width="1" width="400"/>
<g fill="#996200" id="symbol" stroke="#996200" stroke-width="4.7194">
<path d="m127.89 86.962c20.456-9.0266 42.73-14.439 65.179-13.989 0.3126 32.882 0.03906 65.745 0.03906 98.608-36.184-0.09768-72.388 0.1563-108.57-0.3126 0.3126-16.295-2.7549-33.586 4.4938-48.884 7.2095-16.705 22.723-28.076 38.861-35.422z"/>
<path d="m207.53 73.031c29.483-0.25398 59.337 7.8934 83.505 25.028 14.419 10.453 24.891 27.549 24.677 45.68 0.29304 9.007 0.05862 18.034-0.3126 27.041-35.852 1.563-71.763 0.56658-107.63 0.68382-0.4689-32.804-0.03906-65.628-0.23448-98.432z"/>
<path d="m84.656 188.27c36.048-0.19536 72.095-0.37122 108.12-0.13674 0.21492 25.36 0.48846 50.721 0.09768 76.081-31.984 0.80106-65.765-7.2291-90.734-27.998-14.36-11.371-18.503-30.499-17.487-47.946z"/>
<path d="m207.69 188.21c35.891-0.25398 71.783-0.3126 107.67-0.01956-0.13674 10.511 0.84012 21.668-4.0639 31.378-6.2717 13.481-19.245 22.019-32.023 28.662-21.883 11.469-46.852 16.998-71.548 16.08-0.48846-25.36-0.17586-50.721-0.03906-76.101z"/>
</g>
<g fill="#996200" id="text" stroke-width="1.2452">
<path d="m76.918 326.09h-10.025l-4.74-12.898h-19.736l-4.6771 12.898h-7.7392l18.037-48.006h10.634zm-24.707-40.204-7.2568 20.238h14.66zm38.276 40.204h-8.0328v-48.006h8.0328zm52.685 0v-19.001c0-2.1112-0.60823-3.7471-1.8247-4.9076-1.2164-1.1605-2.7615-1.7407-4.6351-1.7407-1.3283 0-2.6287 0.32856-3.9011 0.98572-1.2864 0.67112-2.384 1.6918-3.2928 3.062 0.04196 0.2237 0.06292 0.47538 0.06292 0.75501v0.81794 20.029h-8.0118v-19.001c0-2.1112-0.60124-3.7471-1.8037-4.9076-1.1885-1.1605-2.7196-1.7407-4.5932-1.7407-1.3143 0-2.6007 0.32856-3.8591 0.98572-1.2584 0.67112-2.37 1.6638-3.3348 2.9781v21.686h-8.0328v-31.417h8.0328v3.3556c1.2304-1.4541 2.6566-2.5167 4.2786-3.1878 1.622-0.65714 3.3488-0.98572 5.1804-0.98572 2.335 0 4.4324 0.44043 6.292 1.3213 1.8457 0.89484 3.2719 2.258 4.2786 4.0897 1.3283-2.0134 2.9642-3.4185 4.9078-4.2155s3.964-1.1954 6.0613-1.1954c3.5235 0 6.4318 0.99271 8.725 2.9781 2.2791 1.9854 3.4187 5.0614 3.4187 9.2279v20.029zm30.579-32.109c2.335 0 4.3625 0.41245 6.0823 1.2374 1.7058 0.82492 3.132 1.9924 4.2786 3.5024v-4.0477h7.9489v31.417h-7.9489v-3.9218c-1.1466 1.4681-2.5727 2.6286-4.2786 3.4814-1.7198 0.83888-3.7472 1.2584-6.0823 1.2584-2.8244 0-5.3972-0.70607-7.7182-2.1182-2.3071-1.4261-4.1318-3.3836-5.4741-5.8723-1.3563-2.4888-2.0344-5.313-2.0344-8.4729 0-3.2018 0.67813-6.0331 2.0344-8.4939 1.3423-2.4748 3.167-4.4182 5.4741-5.8304 2.3211-1.4261 4.8938-2.1392 7.7182-2.1392zm-6.9841 16.463c0 2.8802 0.85292 5.1872 2.5588 6.9209 1.7198 1.7477 3.95 2.6216 6.6905 2.6216 1.7897 0 3.3767-0.39148 4.761-1.1745 1.3982-0.76899 2.5098-1.7966 3.3348-3.083v-10.57c-0.82496-1.3283-1.9366-2.3629-3.3348-3.1039-1.3842-0.75501-2.9712-1.1325-4.761-1.1325-2.7405 0-4.9707 0.87385-6.6905 2.6216-1.7058 1.7617-2.5588 4.0617-2.5588 6.9zm50.546 1.0906h-17.555v-6.858h17.555zm33.893 14.555h-9.2073v-39.785h-18.729v-8.2212h47.211l-0.83892 8.2212h-18.436zm29.761 0.96473c-3.5235 0-6.5227-0.78297-8.9976-2.3489-2.4609-1.552-4.3345-3.5933-5.6209-6.124-1.2724-2.5447-1.9086-5.2781-1.9086-8.2003 0-2.9222 0.63619-5.6346 1.9086-8.1373 1.2864-2.4888 3.16-4.5091 5.6209-6.0611 2.4749-1.552 5.4741-2.328 8.9976-2.328 3.2439 0 6.0194 0.72705 8.3264 2.1811 2.3071 1.4681 4.0688 3.4814 5.2853 6.0401 1.2164 2.5586 1.7967 5.5088 1.7408 8.8504h-23.658c0.13981 3.2018 1.1466 5.5997 3.0202 7.1936 1.8736 1.6079 4.0688 2.4118 6.5856 2.4118 1.7897 0 3.4676-0.44742 5.0336-1.3422 1.58-0.89484 2.6916-2.1392 3.3348-3.7331h5.8306c-1.0067 3.789-2.8943 6.6693-5.6628 8.6407s-6.0473 2.9571-9.8365 2.9571zm-7.8231-20.784h16.737c-0.46142-2.1532-1.4192-3.782-2.8733-4.8866-1.4681-1.0906-3.3208-1.6358-5.558-1.6358-1.7897 0-3.4606 0.48237-5.0126 1.4471-1.552 0.95075-2.6496 2.6425-3.2928 5.0753zm44.925 20.637c-3.0202 0-5.7747-0.67112-8.2635-2.0134-2.4888-1.3562-4.4743-3.2787-5.9564-5.7674-1.4961-2.4888-2.2442-5.4039-2.2442-8.7456 0-3.3416 0.74806-6.2568 2.2442-8.7456 1.4821-2.4888 3.4816-4.4182 5.9984-5.7884 2.5168-1.3842 5.2573-2.0763 8.2216-2.0763 4.0688 0 7.4735 1.0556 10.214 3.1668 2.7545 2.0972 4.4464 5.0893 5.0756 8.9762h-5.7467c-0.60124-1.7757-1.6289-3.1109-3.0831-4.0058-1.4681-0.89484-3.16-1.3422-5.0756-1.3422-1.6919 0-3.2719 0.39148-4.74 1.1745-1.4681 0.76899-2.6357 1.8875-3.5026 3.3556-0.8669 1.4681-1.3003 3.2298-1.3003 5.2851 0 2.0134 0.45443 3.7611 1.3633 5.2431 0.92283 1.4821 2.1043 2.6146 3.5445 3.3976 1.4402 0.78297 2.9852 1.1745 4.6351 1.1745 1.9156 0 3.6494-0.47538 5.2014-1.4261 1.552-0.93677 2.6077-2.272 3.167-4.0058h5.7467c-0.76903 3.7471-2.5308 6.7112-5.2853 8.8924-2.7405 2.1672-6.1452 3.2507-10.214 3.2507zm30.244-0.81793h-8.0118v-48.006h8.0118v19.945c1.2444-1.4541 2.6776-2.5167 4.2996-3.1878 1.622-0.65714 3.3488-0.98572 5.1804-0.98572 3.5235 0 6.4388 0.99271 8.7459 2.9781 2.3071 1.9854 3.4606 5.0404 3.4606 9.165v20.092h-8.0328v-19.001c0-2.1112-0.60124-3.7471-1.8037-4.9076-1.2164-1.1605-2.7615-1.7407-4.6351-1.7407-1.3702 0-2.6846 0.31458-3.943 0.94376-1.2584 0.64316-2.349 1.6289-3.2719 2.9571z"/>
</g>
</g>
    </g>
  </g>
</svg>